<?xml version="1.0" encoding="UTF-8" standalone="no"?>
<!DOCTYPE svg PUBLIC "-//W3C//DTD SVG 1.1//EN" "http://www.w3.org/Graphics/SVG/1.1/DTD/svg11.dtd">
<svg version="1.1" xmlns="http://www.w3.org/2000/svg" xmlns:xlink="http://www.w3.org/1999/xlink" preserveAspectRatio="xMidYMid meet" viewBox="0 0 640 640" width="640" height="640"><defs><path d="M552.52 320C552.52 444.18 448.33 545 320 545C191.67 545 87.48 444.18 87.48 320C87.48 195.82 191.67 95 320 95C448.33 95 552.52 195.82 552.52 320Z" id="l1GaS6RSJK"></path><path d="M317.43 392.23L355.44 406.06L429.22 203.33L391.21 189.49L317.43 392.23Z" id="b21sNWTHo2"></path><path d="M210.78 203.33L248.79 189.49L322.57 392.23L284.56 406.06L210.78 203.33Z" id="a3qkqFTACL"></path><path d="M284.1 384.44L353.93 384.1L354.04 405.89L284.21 406.23L284.1 384.44Z" id="e51GBI2OxG"></path><path d="M299.78 432.58L340.23 432.58L340.22 513.17L299.77 513.17L299.78 432.58Z" id="j5TZ6Kycu"></path><path d="M299.78 124.35L340.23 124.35L340.22 204.94L299.77 204.94L299.78 124.35Z" id="aab3DRRKU"></path><path d="M204.89 167.03L272.66 167.03L272.66 204.94L204.89 204.94L204.89 167.03Z" id="e2xUFmMqCb"></path><path d="M383.03 164.64L450.8 164.64L450.8 202.55L383.03 202.55L383.03 164.64Z" id="bAoU78YeG"></path></defs><g><g><use xlink:href="#l1GaS6RSJK" opacity="1" fill="#512592" fill-opacity="1"></use><g><use xlink:href="#l1GaS6RSJK" opacity="1" fill-opacity="0" stroke="#d4af37" stroke-width="20" stroke-opacity="1"></use></g></g><g><use xlink:href="#b21sNWTHo2" opacity="1" fill="#d4af37" fill-opacity="1"></use><g><use xlink:href="#b21sNWTHo2" opacity="1" fill-opacity="0" stroke="#75f662" stroke-width="0" stroke-opacity="1"></use></g></g><g><use xlink:href="#a3qkqFTACL" opacity="1" fill="#d4af37" fill-opacity="1"></use><g><use xlink:href="#a3qkqFTACL" opacity="1" fill-opacity="0" stroke="#75f662" stroke-width="0" stroke-opacity="1"></use></g></g><g><use xlink:href="#e51GBI2OxG" opacity="1" fill="#d4af37" fill-opacity="1"></use></g><g><use xlink:href="#j5TZ6Kycu" opacity="1" fill="#d4af37" fill-opacity="1"></use><g><use xlink:href="#j5TZ6Kycu" opacity="1" fill-opacity="0" stroke="#75f662" stroke-width="0" stroke-opacity="1"></use></g></g><g><use xlink:href="#aab3DRRKU" opacity="1" fill="#d4af37" fill-opacity="1"></use><g><use xlink:href="#aab3DRRKU" opacity="1" fill-opacity="0" stroke="#75f662" stroke-width="0" stroke-opacity="1"></use></g></g><g><use xlink:href="#e2xUFmMqCb" opacity="1" fill="#512592" fill-opacity="1"></use></g><g><use xlink:href="#bAoU78YeG" opacity="1" fill="#512592" fill-opacity="1"></use></g></g></svg>