<?xml version="1.0" encoding="UTF-8" standalone="no"?>
<!DOCTYPE svg PUBLIC "-//W3C//DTD SVG 1.1//EN" "http://www.w3.org/Graphics/SVG/1.1/DTD/svg11.dtd">
<svg version="1.1" xmlns="http://www.w3.org/2000/svg" xmlns:xlink="http://www.w3.org/1999/xlink" preserveAspectRatio="xMidYMid meet" viewBox="0 0 640 640" width="640" height="640"><defs><path d="M331.9 493.6C327.75 493.89 323.56 494.05 319.34 494.05C222.59 494.04 144.17 415.6 144.18 318.86C144.19 242.47 193.7 174.89 266.53 151.86C267.39 147.08 274.27 108.87 275.14 104.1C156.88 128.96 81.17 244.97 106.03 363.22C127.3 464.45 216.56 536.94 320 537.01C323.97 537.01 327.93 536.89 331.9 536.68C331.9 528.07 331.9 502.22 331.9 493.6Z" id="aBmOTa3d"></path><path d="M279.13 439.11L291.84 371.34C230.04 287.33 195.72 240.66 188.85 231.32C177.8 247.73 170.09 266.14 166.14 285.52C181.21 306 218.87 357.19 279.13 439.11Z" id="a1cPifWZoh"></path><path d="M357.17 147.84C451.63 168.7 511.3 262.19 490.44 356.65C481.16 398.69 456.72 435.84 421.78 461C421.78 466.1 421.78 506.87 421.78 511.96C528.78 455.79 569.99 323.52 513.82 216.52C483.49 158.75 428.96 117.52 365.1 104.1C363.52 112.85 357.96 143.46 357.17 147.84Z" id="a4bokwX2JS"></path><path d="M400.59 317.73L350.2 317.73L350.2 598.97L400.59 640L400.59 640L400.59 317.73Z" id="c3uxRuBXUt"></path><path d="M286.38 329.97C397.49 329.97 459.22 329.97 471.57 329.97C472.02 324.16 471.97 319.41 472.02 318.24C472.02 305.19 470.35 292.2 467.05 279.58C455 279.58 394.78 279.58 286.38 279.58L286.38 329.97Z" id="e3wNYenwIv"></path><path d="M237.22 381.69L280.63 440.73L364.93 0L303.44 35.51L303.44 35.51L237.22 381.69Z" id="aQhoqYt8d"></path><path d="M261.87 310.87L266.07 383.9L234.61 335.21" id="a3FQJmkYCl"></path><path d="M281.44 355.4C281.44 371.68 270.15 384.9 256.25 384.9C242.34 384.9 231.05 371.68 231.05 355.4C231.05 339.12 242.34 325.9 256.25 325.9C270.15 325.9 281.44 339.12 281.44 355.4Z" id="b4KRu0zAW"></path><path d="M270.69 324.16C270.69 328.47 261.12 331.97 249.34 331.97C237.55 331.97 227.99 328.47 227.99 324.16C227.99 319.85 237.55 316.36 249.34 316.36C261.12 316.36 270.69 319.85 270.69 324.16Z" id="a141Ao6sk8"></path><path d="M354.97 293.5L395.63 293.5L395.63 343.89L354.97 343.89L354.97 293.5Z" id="bebo3PPuV"></path><path d="M336.66 302.15C336.66 312.4 324.51 320.73 309.55 320.73C294.59 320.73 282.44 312.4 282.44 302.15C282.44 291.9 294.59 283.58 309.55 283.58C324.51 283.58 336.66 291.9 336.66 302.15Z" id="aGPa0XQ3"></path><path d="M317.85 315.73C317.85 320.66 310.8 324.66 302.12 324.66C293.43 324.66 286.38 320.66 286.38 315.73C286.38 310.79 293.43 306.79 302.12 306.79C310.8 306.79 317.85 310.79 317.85 315.73Z" id="b32E2WaDw5"></path><path d="M268.3 293.65L305.57 293.65L305.57 323.36L268.3 323.36L268.3 293.65Z" id="b1hDOlquAL"></path></defs><g><g><g><use xlink:href="#aBmOTa3d" opacity="1" fill="#7f47ae" fill-opacity="1"></use><g><use xlink:href="#aBmOTa3d" opacity="1" fill-opacity="0" stroke="#000000" stroke-width="1" stroke-opacity="0"></use></g></g><g><use xlink:href="#a1cPifWZoh" opacity="1" fill="#ffffff" fill-opacity="1"></use><g><use xlink:href="#a1cPifWZoh" opacity="1" fill-opacity="0" stroke="#d4af37" stroke-width="10" stroke-opacity="1"></use></g></g><g><use xlink:href="#a4bokwX2JS" opacity="1" fill="#7f47ae" fill-opacity="1"></use><g><use xlink:href="#a4bokwX2JS" opacity="1" fill-opacity="0" stroke="#000000" stroke-width="1" stroke-opacity="0"></use></g></g><g><use xlink:href="#c3uxRuBXUt" opacity="1" fill="#ffffff" fill-opacity="1"></use><g><use xlink:href="#c3uxRuBXUt" opacity="1" fill-opacity="0" stroke="#d4af37" stroke-width="10" stroke-opacity="1"></use></g></g><g><use xlink:href="#e3wNYenwIv" opacity="1" fill="#ffffff" fill-opacity="1"></use><g><use xlink:href="#e3wNYenwIv" opacity="1" fill-opacity="0" stroke="#d4af37" stroke-width="10" stroke-opacity="1"></use></g></g><g><use xlink:href="#aQhoqYt8d" opacity="1" fill="#ffffff" fill-opacity="1"></use><g><use xlink:href="#aQhoqYt8d" opacity="1" fill-opacity="0" stroke="#d4af37" stroke-width="10" stroke-opacity="1"></use></g></g><g><use xlink:href="#a3FQJmkYCl" opacity="1" fill="#ffffff" fill-opacity="1"></use><g><use xlink:href="#a3FQJmkYCl" opacity="1" fill-opacity="0" stroke="#000000" stroke-width="1" stroke-opacity="0.01"></use></g></g><g><use xlink:href="#b4KRu0zAW" opacity="1" fill="#ffffff" fill-opacity="1"></use></g><g><use xlink:href="#a141Ao6sk8" opacity="1" fill="#ffffff" fill-opacity="1"></use></g><g><use xlink:href="#bebo3PPuV" opacity="1" fill="#ffffff" fill-opacity="1"></use></g><g><use xlink:href="#aGPa0XQ3" opacity="1" fill="#ffffff" fill-opacity="1"></use></g><g><use xlink:href="#b32E2WaDw5" opacity="1" fill="#ffffff" fill-opacity="1"></use></g><g><use xlink:href="#b1hDOlquAL" opacity="1" fill="#ffffff" fill-opacity="1"></use></g></g></g></svg>